<svg width="403" height="137" viewBox="0 0 403 137" fill="none" xmlns="http://www.w3.org/2000/svg">
<g clip-path="url(#clip0_251_5)">
<path d="M92.7 136.78C92.65 136.7 92.59 136.62 92.56 136.53C87.19 123.75 79.47 112.19 69.58 102.11C59.4 91.72 47.5 83.55 34.2 77.81C23.28 73.11 11.82 70.24 0 69.22V79.96C10.82 80.96 21.32 83.62 31.31 87.93C43.63 93.24 54.63 100.79 64.02 110.36C71.26 117.74 77.19 125.96 81.76 134.89C82.09 135.53 82 136.27 81.67 136.79H92.7V136.78Z" fill="#203840"/>
<path d="M110.77 130.56C115.63 128.53 120.69 127.06 125.89 126.14C128.6 122.83 130.59 118.91 131.62 114.61C123.12 115.35 114.91 117.4 107.15 120.75C106.99 120.82 106.84 120.89 106.69 120.96C105.31 118.03 103.82 115.16 102.23 112.34C101.73 111.46 102.04 110.24 102.86 109.87C103.21 109.71 103.56 109.56 103.92 109.4C112.97 105.5 122.54 103.19 132.45 102.49V91.76C121.56 92.47 111.01 94.98 101.04 99.28C99.51 99.94 98 100.64 96.52 101.38C96 101.64 95.4 101.46 95.03 100.94C93.4 98.62 91.69 96.37 89.92 94.17C89.26 93.35 89.46 91.98 90.32 91.52C92.76 90.23 95.25 89.03 97.8 87.93C108.81 83.18 120.45 80.45 132.45 79.73V68.99C119.45 69.73 106.85 72.67 94.91 77.82C90.27 79.82 85.8 82.13 81.51 84.71C79.34 82.49 77.08 80.35 74.75 78.29C73.95 77.58 74.02 76.07 74.9 75.51C91.94 64.68 111.67 58.08 132.45 56.94V29C132.45 12.99 119.47 0.0100155 103.46 0.0100155H28.99C12.98 1.554e-05 0 12.98 0 28.99V57.17C45.96 60.99 86.31 91.57 102.87 135.1C103.1 135.69 102.99 136.33 102.69 136.79H103.44C106.59 136.79 109.63 136.28 112.47 135.35C111.93 133.74 111.37 132.15 110.77 130.56Z" fill="#203840"/>
<path d="M70.97 136.78C70.97 136.78 70.94 136.75 70.93 136.73C67.3 130.58 62.88 124.83 57.76 119.61C49.27 110.95 39.28 104.11 28.06 99.27C19.12 95.42 9.71 93.01 0 92.03V102.77C8.72 103.71 17.15 105.92 25.18 109.39C35.42 113.81 44.51 120.02 52.2 127.86C54.32 130.02 56.3 132.28 58.14 134.63C58.64 135.27 58.6 136.18 58.22 136.78H70.97Z" fill="#203840"/>
<path d="M21.94 120.75C15.22 117.85 8.18002 115.93 0.900024 114.98C2.05002 119.49 4.26002 123.57 7.25002 126.96C11.29 127.91 15.24 129.22 19.06 130.87C20.89 131.66 22.65 132.54 24.38 133.46C26.41 134.09 27.93 135.49 29.51 136.79H45.6C38.88 130.03 30.93 124.63 21.94 120.75Z" fill="#203840"/>
<path d="M66.67 46.02C59.13 46.02 52.6 50.43 49.53 56.81C47.69 60.62 50.59 65.04 54.82 65.04C57.01 65.04 59.1 63.87 60.04 61.9C61.22 59.42 63.75 57.7 66.67 57.7C69.59 57.7 72.12 59.42 73.3 61.9C74.24 63.88 76.33 65.04 78.52 65.04C82.75 65.04 85.64 60.62 83.81 56.81C80.74 50.43 74.21 46.02 66.67 46.02Z" fill="#C8D131"/>
<path d="M102.17 58.7201C102.17 58.7201 102.25 58.6701 102.29 58.6501C104.62 57.2001 105.65 54.3001 104.66 51.7401C98.78 36.4901 83.97 25.6301 66.67 25.6301C48.33 25.6301 32.79 37.8301 27.73 54.5301C26.98 57.0101 28.03 59.6801 30.23 61.0501C30.27 61.0701 30.31 61.1001 30.34 61.1201C33.56 63.1301 37.8 61.5201 38.91 57.8901C42.53 45.9901 53.6 37.3001 66.67 37.3001C79 37.3001 89.56 45.0301 93.75 55.9101C95.05 59.2801 99.1 60.6201 102.17 58.7201Z" fill="#C8D131"/>
<path d="M120.13 47.6001C120.13 47.6001 120.2 47.5601 120.23 47.5401C122.77 45.9801 123.71 42.7401 122.39 40.0701C112.24 19.5301 91.09 5.36011 66.67 5.36011C42.25 5.36011 19.44 20.6501 9.81 42.5001C8.64 45.1501 9.59 48.2501 12.05 49.7701C12.08 49.7901 12.12 49.8101 12.15 49.8301C15.15 51.6801 19.07 50.4301 20.49 47.2001C28.31 29.4501 46.06 17.0301 66.66 17.0301C87.26 17.0301 103.71 28.5601 111.93 45.2701C113.42 48.3101 117.23 49.3601 120.12 47.5901L120.13 47.6001Z" fill="#C8D131"/>
<path d="M153.31 75.99V75.36C153.31 72.59 154.95 70.96 157.71 70.96H161.99C164.76 70.96 166.39 72.59 166.39 75.36V77C166.39 83.29 169.16 85.55 173.56 85.55C177.96 85.55 180.73 83.29 180.73 76.74C180.73 69.44 177.96 64.7901 168.91 56.8601C157.34 46.6701 153.56 39.5 153.56 29.44C153.56 15.6 160.73 7.55005 174.19 7.55005C187.65 7.55005 194.32 15.85 194.32 28.94C194.32 31.96 192.68 33.34 189.92 33.34H185.64C182.87 33.34 181.24 31.96 181.24 28.94V28.81C181.24 22.52 178.72 20.13 174.32 20.13C169.92 20.13 167.4 22.52 167.4 28.56C167.4 34.98 170.29 39.6301 179.35 47.5601C190.92 57.75 194.57 64.79 194.57 75.74C194.57 90.08 187.27 98.13 173.69 98.13C160.11 98.13 153.31 90.08 153.31 75.99Z" fill="#203840"/>
<path d="M199.35 92.4701V13.2101C199.35 10.4401 200.99 8.81006 203.75 8.81006H208.78C211.55 8.81006 213.18 10.4501 213.18 13.2101V92.4601C213.18 95.2301 211.54 96.8601 208.78 96.8601H203.75C200.98 96.8601 199.35 95.2201 199.35 92.4601V92.4701Z" fill="#203840"/>
<path d="M219.47 76.49V29.19C219.47 15.6 226.52 7.55005 239.85 7.55005C253.18 7.55005 260.23 15.6 260.23 29.19V34.1C260.23 36.87 258.59 38.5 255.83 38.5H251.55C248.78 38.5 247.15 36.86 247.15 34.1V28.31C247.15 22.52 244.38 20.13 240.23 20.13C236.08 20.13 233.31 22.52 233.31 28.31V77.5C233.31 83.29 236.08 85.55 240.23 85.55C244.38 85.55 247.15 83.29 247.15 77.5V68.4401C247.15 65.6701 248.79 64.0401 251.55 64.0401H255.83C258.6 64.0401 260.23 65.6801 260.23 68.4401V76.49C260.23 90.08 253.18 98.13 239.85 98.13C226.52 98.13 219.47 90.08 219.47 76.49Z" fill="#203840"/>
<path d="M264.64 75.99V29.69C264.64 15.6 272.06 7.55005 285.65 7.55005C299.24 7.55005 306.66 15.6 306.66 29.69V75.98C306.66 90.0701 299.24 98.12 285.65 98.12C272.06 98.12 264.64 90.0701 264.64 75.98V75.99ZM292.82 76.87V28.81C292.82 22.52 290.05 20.13 285.65 20.13C281.25 20.13 278.48 22.52 278.48 28.81V76.87C278.48 83.16 281.25 85.55 285.65 85.55C290.05 85.55 292.82 83.16 292.82 76.87Z" fill="#203840"/>
<path d="M311.81 75.99V29.69C311.81 15.6 319.23 7.55005 332.82 7.55005C346.41 7.55005 353.83 15.6 353.83 29.69V75.98C353.83 90.0701 346.41 98.12 332.82 98.12C319.23 98.12 311.81 90.0701 311.81 75.98V75.99ZM339.99 76.87V28.81C339.99 22.52 337.22 20.13 332.82 20.13C328.42 20.13 325.65 22.52 325.65 28.81V76.87C325.65 83.16 328.42 85.55 332.82 85.55C337.22 85.55 339.99 83.16 339.99 76.87Z" fill="#203840"/>
<path d="M359.99 92.4701V13.2101C359.99 10.4401 361.63 8.81006 364.39 8.81006H380.87C395.21 8.81006 401.38 15.4801 401.38 29.0601V32.5801C401.38 41.6401 398.61 47.3001 392.45 49.8101V50.0601C399.87 52.5801 402.77 59.1201 402.77 68.4301V75.9801C402.77 89.5701 395.6 96.8601 381.76 96.8601H364.4C361.63 96.8601 360 95.2201 360 92.4601L359.99 92.4701ZM379.24 44.6701C384.4 44.6701 387.54 42.4101 387.54 35.3601V30.4501C387.54 24.1601 385.4 21.3901 380.49 21.3901H373.82V44.6601H379.23L379.24 44.6701ZM381.76 84.3001C386.41 84.3001 388.93 82.1601 388.93 75.6201V67.9501C388.93 59.7701 386.29 57.2601 380 57.2601H373.84V84.3101H381.77L381.76 84.3001Z" fill="#203840"/>
<path d="M153.83 113.25C153.83 112.42 154.03 111.67 154.44 110.99C154.84 110.31 155.38 109.77 156.06 109.37C156.74 108.97 157.49 108.77 158.32 108.77H174.18C175.01 108.77 175.77 108.97 176.46 109.37C177.15 109.77 177.7 110.32 178.1 110.99C178.5 111.67 178.7 112.42 178.7 113.25V133.64H174.93V124.93H157.54V133.64H153.81V113.25H153.83ZM174.95 121.2V113.36C174.95 113.13 174.87 112.93 174.71 112.75C174.55 112.57 174.35 112.49 174.12 112.49H158.43C158.2 112.49 158 112.58 157.82 112.75C157.64 112.92 157.56 113.12 157.56 113.36V121.2H174.95Z" fill="white"/>
<path d="M190.61 133.64C189.78 133.64 189.03 133.44 188.35 133.03C187.67 132.63 187.13 132.09 186.73 131.41C186.33 130.73 186.12 129.98 186.12 129.15V113.25C186.12 112.42 186.32 111.67 186.73 110.99C187.13 110.31 187.67 109.77 188.35 109.37C189.03 108.97 189.79 108.77 190.61 108.77H206.47C207.3 108.77 208.06 108.97 208.75 109.37C209.44 109.77 209.99 110.32 210.39 110.99C210.79 111.67 210.99 112.42 210.99 113.25V114.74H207.22V113.36C207.22 113.13 207.14 112.93 206.98 112.75C206.82 112.57 206.62 112.49 206.39 112.49H190.7C190.47 112.49 190.27 112.58 190.09 112.75C189.92 112.92 189.83 113.12 189.83 113.36V129.05C189.83 129.28 189.92 129.48 190.09 129.66C190.26 129.83 190.46 129.92 190.7 129.92H206.39C206.62 129.92 206.82 129.83 206.98 129.66C207.14 129.49 207.22 129.29 207.22 129.05V123.76H201.34V119.99H210.98V129.15C210.98 129.98 210.78 130.73 210.38 131.41C209.98 132.09 209.43 132.63 208.74 133.03C208.05 133.43 207.29 133.64 206.46 133.64H190.6H190.61Z" fill="white"/>
<path d="M218.26 133.64V108.79H238.62C239.45 108.79 240.21 109 240.9 109.41C241.59 109.83 242.14 110.37 242.54 111.05C242.94 111.73 243.14 112.47 243.14 113.28V120.26C243.14 121.09 242.94 121.84 242.54 122.52C242.14 123.2 241.59 123.74 240.9 124.14C240.21 124.54 239.45 124.74 238.62 124.74L222 124.77V133.62H218.27L218.26 133.64ZM222.86 120.99H238.55C238.78 120.99 238.98 120.91 239.14 120.75C239.3 120.59 239.38 120.39 239.38 120.16V113.38C239.38 113.15 239.3 112.95 239.14 112.78C238.98 112.61 238.78 112.52 238.55 112.52H222.86C222.63 112.52 222.43 112.61 222.25 112.78C222.08 112.95 221.99 113.15 221.99 113.38V120.16C221.99 120.39 222.08 120.59 222.25 120.75C222.42 120.91 222.62 120.99 222.86 120.99ZM238.65 133.64L230.87 124.34H235.74L243 132.95V133.64H238.64H238.65Z" fill="white"/>
<path d="M254.65 133.64C253.82 133.64 253.07 133.44 252.39 133.03C251.71 132.63 251.17 132.09 250.77 131.41C250.37 130.73 250.17 129.98 250.17 129.15V113.25C250.17 112.42 250.37 111.67 250.77 110.99C251.17 110.31 251.71 109.77 252.39 109.37C253.07 108.97 253.82 108.77 254.65 108.77H270.55C271.38 108.77 272.13 108.97 272.81 109.37C273.49 109.77 274.03 110.32 274.43 110.99C274.83 111.66 275.04 112.42 275.04 113.25V129.15C275.04 129.98 274.84 130.73 274.43 131.41C274.02 132.09 273.49 132.63 272.81 133.03C272.13 133.43 271.37 133.64 270.55 133.64H254.65ZM254.75 129.91H270.44C270.67 129.91 270.87 129.82 271.03 129.65C271.19 129.48 271.27 129.28 271.27 129.04V113.35C271.27 113.12 271.19 112.92 271.03 112.74C270.87 112.57 270.67 112.48 270.44 112.48H254.75C254.52 112.48 254.32 112.57 254.15 112.74C253.98 112.91 253.89 113.11 253.89 113.35V129.04C253.89 129.27 253.98 129.47 254.15 129.65C254.32 129.82 254.52 129.91 254.75 129.91Z" fill="white"/>
<path d="M290.8 133.64V114.15H281.05V108.76H305.94V114.15H296.19V133.64H290.8Z" fill="white"/>
<path d="M312.06 133.64V108.75H335.04V114.14H317.48V118.5H331.62V123.89H317.48V128.24H335.04V133.63H312.06V133.64Z" fill="white"/>
<path d="M347.04 133.64C346.09 133.64 345.24 133.41 344.46 132.95C343.68 132.49 343.07 131.87 342.61 131.1C342.15 130.33 341.92 129.47 341.92 128.52V113.87C341.92 112.92 342.15 112.07 342.61 111.29C343.07 110.52 343.69 109.9 344.46 109.44C345.23 108.98 346.09 108.75 347.04 108.75H366.74V114.14H348.42C348.05 114.14 347.77 114.23 347.57 114.42C347.37 114.61 347.28 114.89 347.28 115.28V127.1C347.28 127.47 347.38 127.75 347.57 127.95C347.77 128.15 348.05 128.24 348.42 128.24H366.74V133.63H347.04V133.64Z" fill="white"/>
<path d="M373.82 133.64V108.75H379.18V118.5H393.87V108.75H399.23V133.64H393.87V123.89H379.18V133.64H373.82Z" fill="white"/>
</g>
<defs>
<clipPath id="clip0_251_5">
<rect width="402.76" height="136.78" fill="white"/>
</clipPath>
</defs>
</svg>
